<?xml version="1.0" encoding="utf-8"?>
<!-- Generator: Adobe Illustrator 17.0.0, SVG Export Plug-In . SVG Version: 6.00 Build 0)  -->
<!DOCTYPE svg PUBLIC "-//W3C//DTD SVG 1.1//EN" "http://www.w3.org/Graphics/SVG/1.1/DTD/svg11.dtd">
<svg version="1.1" id="Ebene_1" xmlns="http://www.w3.org/2000/svg" xmlns:xlink="http://www.w3.org/1999/xlink" x="0px" y="0px"
	 width="796.96px" height="796.88px" viewBox="0 0 796.96 796.88" enable-background="new 0 0 796.96 796.88" xml:space="preserve">
<path fill-rule="evenodd" clip-rule="evenodd" fill="#010202" stroke="#000000" stroke-miterlimit="10" d="M70.857,252.962
	c3.717,6.372,4.248,14.336,11.15,21.238c6.903,6.902,13.806,11.149,15.399,18.052c1.465,6.348,7.869,24.813,12.192,33.108
	c-4.868-5.414-1.654-5.914-9.007-12.401c-9.027-7.964-7.434-27.078-13.275-29.733c-5.841-2.654-10.62-4.247-13.806-19.114
	c-3.186-14.866-10.62-14.335-18.054-16.459c-7.433-2.124-18.053-16.99-18.053-21.768c0-0.847-0.332-1.869-0.928-3.033
	c3.134,5.745,4.818,9.878,11.016,12.59C55.989,239.158,67.14,246.591,70.857,252.962z M796.46,766.338
	c0,16.592-13.452,30.042-30.045,30.042H30.545c-16.593,0-30.045-13.45-30.045-30.042V353.31h126.751l0.421-14.336
	c0,0-0.148,0.095-0.673-0.048c2.77-6.71,7.444-14.733,15.01-19.597c14.868-9.557,30.267-17.521,30.267-17.521
	s-3.717-11.15-9.027-14.335c-5.31-3.186-19.116-10.088-12.213-11.15c6.903-1.061,11.682-1.061,10.62-6.902
	c-1.062-5.84-2.124-7.433,2.655-7.433c4.779,0,3.186,0,4.779-5.84c1.593-5.84,3.717-9.557,6.372-9.026
	c2.655,0.531,3.717-2.654,4.248-9.026c0.531-6.371,4.248-13.273,2.124-13.804c-2.124-0.531-40.355-26.547-91.862-23.361
	c-51.507,3.186-74.339-6.902-76.463-8.495s11.682,13.804,18.585,23.361c1.7,2.354,2.979,4.512,4.071,6.487
	c-3.062-5.423-11.578-13.774-22.125-23.477c-13.275-12.211-7.965-20.176,3.717-15.397c11.682,4.779,46.197,6.902,93.455,5.84
	c47.258-1.061,82.835,27.078,82.835,27.078c5.84-0.531,4.248-9.026,4.248-9.026c11.682,8.495,22.302,24.423,22.302,24.423
	c-1.062-3.185,2.655-6.371,2.655-6.371c0.531,4.778,12.213,14.866,12.213,14.866c-1.062-3.717,3.717-6.371,3.717-6.371
	c0.531,8.495,9.558,13.273,9.558,13.273c4.248-19.114,37.7-37.697,70.622-37.697c32.921,0,56.285,13.804,66.905,13.804
	s48.32-12.743,86.021-12.743c37.701,0,69.029,25.485,69.029,25.485s18.054-13.274,22.833-19.114
	c4.779-5.84,18.585-11.15,30.267-9.026c11.682,2.124,20.709,0.531,20.709,0.531l-3.717,6.371c0,0,4.248,0,13.275-5.309
	c9.027-5.309,39.293-20.176,72.215-22.83c32.921-2.655,74.87-11.15,82.835-17.521c0.232-0.186,0.449-0.353,0.674-0.531H0.5v-138
	C0.5,13.951,13.952,0.5,30.545,0.5h735.869c16.593,0,30.045,13.451,30.045,30.042v138h-1.83c0.168,0.342,0.335,0.68,0.502,1.062
	c3.717,8.495-5.841,9.557-6.903,16.99c-1.062,7.433-7.965,19.114-15.93,30.794c-7.965,11.68-18.585,16.459-19.647,21.768
	c-1.062,5.309-18.054,18.583-21.24,23.361c-3.186,4.779-10.089,17.521-17.523,22.299c-7.434,4.779-9.558,15.397-14.867,23.361
	c-3.155,4.732-5.386,9.273-9.117,13.408c1.667-4.933,0.314-5.549,5.399-13.408c5.841-9.026,5.31-16.459,12.213-21.768
	c6.903-5.309,11.15-6.902,14.867-15.397c3.717-8.495,6.903-15.397,12.213-20.707c5.31-5.31,7.434-12.212,13.275-18.583
	c5.841-6.371,13.275-11.68,16.46-16.459c3.186-4.778,3.717-10.618,12.213-16.99c8.496-6.371,12.213-15.397,12.213-15.397
	s-28.143,11.15-63.719,15.397c-35.577,4.248-89.738,21.238-101.951,38.228c-12.213,16.99-16.461,23.892-16.461,28.671
	c0,4.778,3.186,1.593,3.717,4.778c0.531,3.186-0.531,5.31-2.655,7.964c-2.123,2.655,2.124,6.902-2.655,8.495
	s-6.372,3.186-8.496,7.433c-2.124,4.248-6.372,6.371-6.372,6.371s23.895,9.557,34.515,16.99c8.964,6.275,14.129,15.209,15.206,26.78
	c-0.884-0.135-1.4-0.233-1.4-0.233s-0.373,2.26-0.807,9.557H796.46V766.338z M556.716,398.44c26.241,0,23.86-21.688,23.418-24.62
	c0.566,3.254,5.859,29.032,30.743,23.558c26.55-5.84,7.434-27.609,7.434-27.609s1.125-0.033,2.825-0.247
	c-4.942-4.914-12.703-10.372-22.826-10.372c-18.408,0-19.47,17.344-19.47,17.344s-1.062-4.247-16.284-12.389
	c-10.255-5.485-19.539,0.435-24.511,4.884C537.176,371.956,530.149,398.44,556.716,398.44z M237.589,363.929l0.036-0.009
	c-3.589-1.779-8.577-3.544-15.258-4.416c-10.076-1.314-17.302,4.825-21.35,9.697c0.458,5.493,3.923,30.993,28.607,23.399
	C257.236,384.104,237.589,363.929,237.589,363.929z M169.091,395.785c18.456-0.439,20.182-18.683,20.229-24.966
	c-5.279-2.325-12.639-5.064-20.406-6.359c-9.493-1.582-14.507,1.308-16.896,3.605C151.535,377.986,152.853,396.172,169.091,395.785z
	 M257.412,351.009c-0.91,0.72-1.766,1.495-2.571,2.301c-0.565,0.566-1.098,1.152-1.613,1.743c-0.106,0.123-0.212,0.245-0.316,0.369
	c-0.992,1.172-1.887,2.373-2.685,3.556c-0.094,0.139-0.187,0.277-0.278,0.416c-0.381,0.579-0.749,1.155-1.084,1.715l5.714-1.428
	c0,0,28.143,7.964,28.143-5.31h0.794c-0.209-0.446-0.415-0.869-0.617-1.239C278.652,345.346,265.908,344.284,257.412,351.009z
	 M300.069,281.987c-0.793,0-1.567,0.1-2.317,0.281c-3.242,2.316-6.034,5.076-8.414,8.085c-0.716,1.869-1.128,3.946-1.128,6.147
	c0,8.015,5.309,14.512,11.858,14.512c6.55,0,11.859-6.497,11.859-14.512C311.928,288.484,306.618,281.987,300.069,281.987z
	 M320.424,275.262c-1.631,0-3.192,0.107-4.714,0.271c2.74,2.168,4.786,5.325,5.776,9.286c0,0-8.142,0.708-6.726,7.433
	c1.416,6.725,8.496,2.478,8.496,2.478s-3.186,30.44-24.072,30.44c-10.437,0-17.072-7.16-19.332-16.178
	c-1.565,5.23-2.261,10.088-2.261,13.7c0,0,9.912,16.636,44.957,9.203c35.046-7.433,37.878-7.433,37.878-7.433
	s-3.186-6.725-1.416-9.557c1.77-2.832,1.77-3.186,1.77-3.186S352.637,275.262,320.424,275.262z M405.029,322.693
	c-6.372-1.062-5.31-4.248-18.054-5.663c-12.744-1.416-12.036,5.663-19.824,6.371c-7.788,0.708-3.894,10.265-3.894,10.265
	c5.31,5.663,10.266,3.186,16.992,5.663c6.726,2.477,4.248,3.186,10.62,1.416c6.372-1.77,12.39-2.478,19.824-5.309
	S411.401,323.754,405.029,322.693z M446.201,282.153c-5.278,3.45-9.78,8.027-13.503,12.972c-0.035,0.453-0.057,0.91-0.057,1.374
	c0,8.015,5.309,14.512,11.858,14.512c6.55,0,11.859-6.497,11.859-14.512C456.358,289.193,451.942,283.165,446.201,282.153z
	 M474.766,276.678c-4.89-1.01-9.463-1.055-13.724-0.372c2.287,2.12,3.996,4.999,4.875,8.513c0,0-8.142,0.708-6.726,7.433
	c1.416,6.725,8.496,2.478,8.496,2.478s-3.186,30.44-24.072,30.44c-10.322,0-16.919-7.007-19.249-15.885
	c-2.057,4.584-3.439,8.896-4.114,12.346c0,0,20.885,17.698,48.497,15.574c27.612-2.124,32.214-8.141,36.461-8.141
	C505.209,329.064,507.333,283.403,474.766,276.678z M497.776,343.93c-6.918,1.759-10.445,5.812-12.085,10.442h2.526
	c0,0-4.779,25.485,13.806,23.361c18.585-2.124,18.054-9.026,18.054-9.026h2.484c-0.056-0.521-0.12-1.065-0.192-1.624
	c-0.061-0.47-0.131-0.959-0.205-1.454c-0.013-0.085-0.023-0.165-0.035-0.25c-0.537-3.523-1.417-7.639-2.834-12.069
	c-0.095-0.296-0.18-0.587-0.28-0.885C514.414,338.621,518.661,338.621,497.776,343.93z M580.134,373.82
	c-0.037-0.218-0.054-0.335-0.054-0.335S580.102,373.608,580.134,373.82z"/>
</svg>
